<svg xmlns="http://www.w3.org/2000/svg" width="230" height="105" viewBox="0 0 230 105">
    <g data-name="그룹 46">
        <path data-name="패스 87" d="M343.854 298.516c-29.509 2.1-38.485 7.911-41.214 23.955v27.424c62.116-.288 112.425-23.072 113.807-51.379z" transform="translate(-186.447 -244.895)" style="opacity:.15"/>
        <path data-name="패스 88" d="M291.821 298.516h-72.594c1.382 28.307 51.691 51.091 113.807 51.379v-27.421c-2.728-16.046-11.704-21.856-41.213-23.958z" transform="translate(-219.227 -244.895)" style="opacity:.15"/>
        <path data-name="패스 89" d="M343.853 311.3h72.594c-1.382-28.305-51.691-51.089-113.807-51.379v27.424c2.729 16.042 11.705 21.855 41.213 23.955z" transform="translate(-186.447 -259.919)" style="opacity:.15"/>
        <path data-name="패스 90" d="M219.227 311.3h72.594c29.509-2.1 38.485-7.911 41.213-23.957v-27.424c-62.116.29-112.425 23.073-113.807 51.381z" transform="translate(-219.227 -259.919)" style="opacity:.15"/>
    </g>
</svg>
