<svg xmlns="http://www.w3.org/2000/svg" width="140" height="30" viewBox="0 0 140 30">
    <path data-name="사각형 2" style="fill:transparent" d="M0 0h140v30H0z"/>
    <path data-name="패스 32" d="M6.423 19.79h11.74v4.48H0V5h6.423zm12.869 4.48h5.721V9.642h-5.721zm15.507-4.966V13.42h3.778V9.642h-3.778V5h-5.722v4.642h-3v3.779h3v7.1c0 3.158 1.538 4.075 5.263 4.075a32.412 32.412 0 0 0 4.345-.27v-3.564c-.756.027-1.323.054-2.024.054-1.539-.001-1.863-.189-1.863-1.512zm5.015 4.966h6.423v-7.476h11.119v-4.156H46.237v-3.32h11.956V5H39.814zm19.508 0h5.722V5h-5.723zm16.976.594c-6.585 0-10.256-2.51-10.256-7.935 0-5.182 4.021-7.881 10.094-7.881 6.262 0 10.148 2.726 10.148 8.825v.432H71.925c.3 1.889 1.646 3.265 4.588 3.265a4 4 0 0 0 3.455-1.646h6.045c-.702 2.43-3.482 4.94-9.716 4.94zm-4.372-9.527H80.4c-.324-1.619-1.538-3-4.237-3s-3.914 1.381-4.238 3zm33.422-5.695h-7.1l-3 4.237-3-4.237h-7.1l6.18 7.044-6.747 7.584h7.368l3.293-4.507 3.293 4.507h7.368l-6.72-7.584zm1.215 14.628h5.722V9.642h-5.722zm12.714-11.74h-.054V9.642h-5.64v14.63h5.722v-5.67c0-2.645 1.457-4.318 4.723-4.318a10.64 10.64 0 0 1 3.158.486V9.426a11.307 11.307 0 0 0-1.943-.162 6.853 6.853 0 0 0-5.967 3.266zM19.293 8.244h5.721V5.001h-5.722zm87.27 0h5.722V5h-5.722zm25.09 5.728h1.378v-2h1.081l1.341 2h1.609l-1.528-2.234a2.151 2.151 0 0 0 .97-.7 1.964 1.964 0 0 0 .371-1.238v-.018a1.933 1.933 0 0 0-.537-1.43 2.468 2.468 0 0 0-1.823-.635h-2.86zm1.377-3.218v-1.8h1.367a1.261 1.261 0 0 1 .8.224.8.8 0 0 1 .286.67v.018a.816.816 0 0 1-.272.644 1.145 1.145 0 0 1-.782.241zm6.97.087a5.844 5.844 0 1 0-5.844 5.845A5.85 5.85 0 0 0 140 10.844zm-1.11 0a4.734 4.734 0 1 1-4.734-4.734 4.74 4.74 0 0 1 4.734 4.737z"/>
</svg>
