<svg xmlns="http://www.w3.org/2000/svg" width="1730" height="413" viewBox="0 0 1730 413">
    <g style="opacity:.1">
        <path data-name="사각형 2" style="fill:transparent" d="M0 0h1730v413H0z"/>
        <path data-name="패스 32" d="M157.141 428.789h145.074v55.36H77.769V246.03h79.372zm159.021 55.36h70.7V303.391h-70.7zm191.617-61.363v-72.7h46.69v-46.695h-46.69V246.03h-70.7v57.361h-37.022v46.693h37.019v87.711c0 39.019 19.008 50.357 65.032 50.357a400.506 400.506 0 0 0 53.7-3.337V440.8c-9.341.333-16.344.666-25.014.666-19.013-.004-23.015-2.337-23.015-18.679zm61.971 61.363h79.372V391.77h137.4v-51.36h-137.4v-41.022h147.74V246.03H569.751zm241.059 0h70.7V246.03h-70.7zm209.774 7.336c-81.376 0-126.73-31.014-126.73-98.049 0-64.033 49.691-97.383 124.73-97.383 77.374 0 125.4 33.682 125.4 109.056v5.336H966.556c3.669 23.345 20.342 40.351 56.695 40.351 22.677 0 34.35-9.669 42.69-20.342h74.7c-8.669 30.018-43.017 61.032-120.058 61.032zm-54.027-117.724h104.719c-4-20.009-19.01-37.019-52.359-37.019s-48.357 17.011-52.36 37.019zm413-70.371h-87.711l-37.019 52.362-37.019-52.362H1130.1l76.373 87.043-83.376 93.716h91.045l40.688-55.693 40.688 55.693h91.046l-83.043-93.716zm15.017 180.759h70.7V303.391h-70.7zm157.1-145.074h-.671v-35.684h-69.7V484.15h70.7v-70.035c0-32.684 18.009-53.359 58.362-53.359 13.339 0 30.016 2.666 39.021 6v-66.031a139.709 139.709 0 0 0-24.014-2c-32.008-.002-59.686 16.34-73.693 40.351zM316.162 286.109h70.7V246.03h-70.7zm1078.412 0h70.7v-40.081h-70.7zm310.053 70.821h17.01v-24.739H1735l16.565 24.739h19.883l-18.884-27.612a26.581 26.581 0 0 0 11.98-8.665q4.58-5.91 4.585-15.3v-.219q0-11.04-6.63-17.671-7.837-7.837-22.527-7.843h-35.342zm17.01-39.763v-22.2h16.9q6.292 0 9.826 2.77c2.359 1.833 3.534 4.6 3.534 8.278v.216a10.082 10.082 0 0 1-3.367 7.957q-3.367 2.975-9.662 2.977zm86.132 1.077a72.214 72.214 0 1 0-72.214 72.223 72.294 72.294 0 0 0 72.214-72.223zm-13.712 0a58.5 58.5 0 1 1-58.5-58.5 58.568 58.568 0 0 1 58.5 58.5z" transform="translate(-77.769 -140.866)" style="fill:#fff"/>
    </g>
</svg>
